<mxfile host="app.diagrams.net" modified="2021-06-04T09:36:04.415Z" agent="5.0 (Windows NT 10.0; WOW64) AppleWebKit/537.36 (KHTML, like Gecko) Chrome/86.0.4240.198 Safari/537.36" etag="hotRo2xvk3h3rmltjndS" version="14.7.3" type="github">
  <diagram id="lkRm1c72InqvSzkojx0g" name="Page-1">
    <mxGraphModel dx="913" dy="880" grid="1" gridSize="10" guides="1" tooltips="1" connect="1" arrows="1" fold="1" page="1" pageScale="1" pageWidth="827" pageHeight="1169" math="0" shadow="0">
      <root>
        <mxCell id="0" />
        <mxCell id="1" parent="0" />
        <mxCell id="D9X6yyjlbzbRAooFl8lF-1" value="&lt;font style=&quot;font-size: 28px&quot;&gt;发起者：A的地址（公钥）&lt;br&gt;前一笔交易ID：****&lt;br&gt;接收者：B的地址（公钥）&lt;br&gt;金额：10 BTC&lt;br&gt;&lt;/font&gt;" style="rounded=0;whiteSpace=wrap;html=1;" vertex="1" parent="1">
          <mxGeometry x="50" y="100" width="390" height="160" as="geometry" />
        </mxCell>
      </root>
    </mxGraphModel>
  </diagram>
</mxfile>
